<svg xmlns="http://www.w3.org/2000/svg" xmlns:xlink="http://www.w3.org/1999/xlink" viewBox="0 0 103.7 27.63" xmlns:v="https://vecta.io/nano"><g fill="#58595b"><path d="M79.52 17.74H76.8c-.05-.35-.15-.67-.3-.94-.15-.28-.35-.51-.59-.7s-.52-.34-.83-.45a3.29 3.29 0 0 0-1.01-.16c-.66 0-1.23.16-1.72.49-.49.32-.87.8-1.13 1.41-.27.62-.4 1.37-.4 2.25 0 .91.14 1.67.41 2.28.27.62.65 1.08 1.14 1.4.49.31 1.05.47 1.69.47.36 0 .69-.05 1-.14a2.76 2.76 0 0 0 .82-.42c.24-.18.44-.41.6-.67s.27-.57.33-.91l2.72.01a5.12 5.12 0 0 1-.52 1.68 5 5 0 0 1-1.12 1.44c-.47.42-1.03.76-1.67 1-.65.25-1.38.37-2.19.37-1.13 0-2.14-.26-3.04-.77-.89-.51-1.59-1.25-2.11-2.23s-.77-2.15-.77-3.53.26-2.56.78-3.53 1.23-1.71 2.12-2.22 1.9-.77 3.01-.77c.74 0 1.42.1 2.05.31s1.19.51 1.68.9a4.54 4.54 0 0 1 1.19 1.45c.3.59.49 1.24.58 1.98z"/><use xlink:href="#B"/><use xlink:href="#B" x="11.43"/><path d="M31.69 10.81v14.96h-3.63V10.81h3.63zm4.72 2.3c-.54 0-1-.15-1.38-.46s-.58-.68-.58-1.11.19-.8.58-1.11.85-.46 1.38-.46c.54 0 1 .15 1.38.46s.58.68.58 1.11-.19.81-.58 1.11c-.37.3-.83.46-1.38.46zm-1.82 12.66V14.55h3.63v11.22h-3.63zm10.26.21c-.83 0-1.58-.13-2.23-.38s-1.17-.62-1.55-1.12c-.38-.49-.57-1.11-.57-1.85 0-.62.13-1.15.4-1.57s.63-.76 1.09-1.02.98-.45 1.57-.58 1.21-.22 1.85-.28l1.84-.19c.46-.06.8-.15 1.01-.27a.58.58 0 0 0 .31-.54v-.04c0-.46-.17-.82-.51-1.07s-.82-.38-1.44-.38c-.65 0-1.17.12-1.56.37s-.64.55-.77.92l-3.36-.23c.17-.68.5-1.27 1-1.77s1.15-.88 1.94-1.15 1.71-.41 2.76-.41c.73 0 1.42.07 2.09.22s1.26.37 1.78.68.93.7 1.23 1.18.45 1.05.45 1.72v7.57h-3.44v-1.56h-.1c-.21.35-.49.66-.84.92-.35.27-.78.47-1.27.62-.46.14-1.03.21-1.68.21zm1.04-2.14c.53 0 1.01-.09 1.42-.27s.73-.43.96-.74a1.73 1.73 0 0 0 .35-1.06v-1.19a2.14 2.14 0 0 1-.46.17l-.66.14-.73.11-.67.08c-.43.05-.8.14-1.12.25-.32.12-.57.27-.74.47-.18.2-.26.44-.26.73 0 .42.18.75.54.97.36.23.81.34 1.37.34zm20.05-6.09l-3.32.18a1.46 1.46 0 0 0-.37-.66c-.19-.2-.43-.36-.74-.47a3.23 3.23 0 0 0-1.09-.18c-.56 0-1.04.1-1.42.3s-.58.47-.58.81c0 .27.12.49.38.68s.68.33 1.29.45l2.37.41c1.27.22 2.22.58 2.85 1.08a2.4 2.4 0 0 1 .94 1.96c0 .74-.25 1.38-.75 1.94-.5.55-1.19.99-2.06 1.3s-1.88.46-3.01.46c-1.73 0-3.11-.31-4.14-.93s-1.63-1.47-1.8-2.54l3.57-.16c.11.45.37.8.78 1.03.41.24.95.35 1.59.35s1.15-.11 1.54-.32.59-.49.59-.82c-.01-.28-.15-.51-.42-.7s-.69-.32-1.26-.42l-2.28-.4c-1.28-.22-2.23-.6-2.85-1.14a2.62 2.62 0 0 1-.93-2.07c0-.72.23-1.34.69-1.86s1.1-.92 1.93-1.21c.83-.28 1.81-.42 2.93-.42 1.65 0 2.96.3 3.91.9.94.6 1.5 1.42 1.66 2.45z"/></g><path d="M19.81 25.77L16.86 6.36h-.24L7.21 25.77H1.22L14.27.22h6.96l4.58 25.55h-6z" fill="#27aae1"/><path d="M2.48 25.76L7.06.21h6.96l13.05 25.55h-5.99l-9.4-19.41h-.24L8.48 25.76h-6z" fill="#1c75bc"/><defs ><path id="B" d="M88.34 16.94c-.05-.5-.26-.89-.64-1.17s-.89-.42-1.53-.42c-.44 0-.81.06-1.11.18s-.53.29-.69.51-.24.46-.24.73c-.01.23.04.43.15.6a1.42 1.42 0 0 0 .44.44c.19.12.4.23.64.32s.5.16.78.23l1.14.27a7.84 7.84 0 0 1 1.53.5c.46.21.86.46 1.2.76s.6.66.79 1.07.28.88.29 1.41c0 .78-.2 1.45-.59 2.02s-.95 1.01-1.69 1.32c-.73.31-1.62.47-2.65.47s-1.92-.16-2.68-.47-1.35-.78-1.77-1.4-.65-1.38-.67-2.3h2.6c.03.43.15.78.37 1.06s.51.5.87.64a3.43 3.43 0 0 0 1.24.21c.46 0 .85-.07 1.19-.2s.6-.32.79-.55c.19-.24.28-.51.28-.81 0-.29-.08-.53-.25-.72s-.41-.36-.73-.5a7.06 7.06 0 0 0-1.17-.37l-1.38-.35c-1.07-.26-1.92-.67-2.54-1.22s-.93-1.3-.92-2.24c0-.77.2-1.44.62-2.02.42-.57.99-1.02 1.71-1.35.73-.32 1.55-.48 2.48-.48.94 0 1.77.16 2.47.48.71.32 1.25.77 1.65 1.35a3.58 3.58 0 0 1 .61 2h-2.59z"/></defs></svg>